<svg width="23" height="24" viewBox="0 0 23 24" fill="none" xmlns="http://www.w3.org/2000/svg">
<path d="M11.5542 15.1239L13.0325 16.6022L17.4694 12.1663L13.0335 7.73047L11.5552 9.20978L13.4653 11.1209L5.5857 11.1209L5.5857 13.2118L13.4653 13.2118L11.5542 15.1239Z" fill="white"/>
<path fill-rule="evenodd" clip-rule="evenodd" d="M19.6316 20.2975C24.1228 15.8063 24.1228 8.52573 19.6316 4.03446C15.1403 -0.4568 7.85975 -0.4568 3.36849 4.03446C-1.12278 8.52573 -1.12278 15.8063 3.36849 20.2975C7.85975 24.7888 15.1403 24.7888 19.6316 20.2975ZM18.1533 18.8193C19.9178 17.0547 20.9092 14.6615 20.9092 12.166C20.9092 9.67054 19.9178 7.27729 18.1533 5.51273C16.3887 3.74818 13.9955 2.75686 11.5 2.75686C9.00456 2.75686 6.61131 3.74818 4.84676 5.51273C3.0822 7.27729 2.09089 9.67054 2.09089 12.166C2.09089 14.6615 3.0822 17.0547 4.84676 18.8193C6.61131 20.5838 9.00456 21.5751 11.5 21.5751C13.9955 21.5751 16.3887 20.5838 18.1533 18.8193Z" fill="white"/>
</svg>
