<svg width="210" height="222" viewBox="0 0 210 222" fill="none" xmlns="http://www.w3.org/2000/svg">
<path d="M137.55 66.7089C137.292 65.9348 136.799 65.2609 136.138 64.7814C135.478 64.3019 134.685 64.041 133.869 64.0351H114.61L108.681 45.7451C108.426 44.9698 107.933 44.2948 107.272 43.8163C106.611 43.3377 105.816 43.0801 105 43.0801C104.184 43.0801 103.389 43.3377 102.728 43.8163C102.067 44.2948 101.574 44.9698 101.319 45.7451L95.39 64.0351H76.1313C75.3154 64.041 74.5218 64.3019 73.8617 64.7814C73.2016 65.2609 72.708 65.9348 72.45 66.7089C72.1925 67.4904 72.1928 68.334 72.4509 69.1154C72.709 69.8968 73.2113 70.5745 73.8838 71.0489L89.4225 82.3639L83.4938 100.654C83.2378 101.432 83.2349 102.271 83.4856 103.051C83.7362 103.83 84.2274 104.511 84.8888 104.994C85.5574 105.467 86.3562 105.72 87.175 105.72C87.9939 105.72 88.7926 105.467 89.4613 104.994L105 93.6789L120.539 104.994C121.213 105.456 122.008 105.712 122.825 105.73C123.644 105.724 124.442 105.467 125.111 104.994C125.773 104.511 126.264 103.83 126.514 103.051C126.765 102.271 126.762 101.432 126.506 100.654L120.578 82.3639L136.116 71.0489C136.789 70.5745 137.291 69.8968 137.549 69.1154C137.807 68.334 137.808 67.4904 137.55 66.7089ZM113.758 77.7526C113.092 78.233 112.595 78.9112 112.338 79.6904C112.08 80.4697 112.075 81.3104 112.324 82.0926L115.463 91.7026L107.286 85.7351C106.62 85.2564 105.82 84.9988 105 84.9988C104.18 84.9988 103.38 85.2564 102.714 85.7351L94.5375 91.7026L97.6763 82.0926C97.9246 81.3104 97.9196 80.4697 97.6622 79.6904C97.4048 78.9112 96.9079 78.233 96.2425 77.7526L88.0663 71.7851H98.18C98.9985 71.7899 99.797 71.5331 100.459 71.0521C101.121 70.5711 101.613 69.8912 101.861 69.1114L105 59.5014L108.139 69.1114C108.387 69.8912 108.879 70.5711 109.541 71.0521C110.203 71.5331 111.002 71.7899 111.82 71.7851H121.934L113.758 77.7526Z" fill="#5858FF"/>
<path d="M105 26.7578C91.771 26.7542 79.052 31.861 69.4987 41.012C59.9455 50.163 54.2965 62.6507 53.7314 75.8676C53.1664 89.0845 57.7288 102.009 66.4661 111.942C75.2035 121.875 87.4402 128.049 100.621 129.174C102.094 129.29 103.527 129.368 105 129.368C106.317 129.368 107.674 129.29 108.991 129.174H109.379V129.135C122.555 128.01 134.787 121.838 143.521 111.909C152.254 101.98 156.815 89.0601 156.25 75.8482C155.685 62.6363 150.038 50.1534 140.488 41.006C130.938 31.8586 118.224 26.7539 105 26.7578ZM143.014 99.2978C143.003 99.2978 142.994 99.3019 142.986 99.3092C142.979 99.3164 142.975 99.3263 142.975 99.3366C139.509 105.549 134.568 110.812 128.587 114.664C122.607 118.516 115.771 120.838 108.681 121.424L108.642 121.463H108.604C106.181 121.701 103.739 121.688 101.319 121.424C91.9517 120.626 83.0947 116.817 76.0717 110.568C69.0488 104.319 64.2372 95.9639 62.3563 86.753C60.4754 77.5422 61.6262 67.97 65.6367 59.4675C69.6472 50.9649 76.302 43.9888 84.6061 39.5821C92.9101 35.1754 102.418 33.5748 111.707 35.0195C120.996 36.4643 129.568 40.8768 136.142 47.5975C142.715 54.3181 146.937 62.9859 148.175 72.3048C149.414 81.6238 147.603 91.0933 143.014 99.2978Z" fill="#5858FF"/>
<path d="M209.16 191.329L194.59 168.738C184.166 152.656 173.755 136.549 163.358 120.416C164.171 120.106 165.101 119.758 166.031 119.448C168.131 119.027 170.127 118.194 171.903 116.997C173.679 115.799 175.2 114.262 176.378 112.473C177.036 110.45 177.289 108.317 177.123 106.196C176.957 104.075 176.374 102.007 175.409 100.111C174.498 98.1282 174.01 95.9772 173.975 93.7952C174.935 91.9301 176.267 90.2815 177.889 88.9514C179.614 87.6452 181.063 86.0106 182.154 84.1418C183.245 82.2731 183.955 80.207 184.244 78.0627C183.959 75.9225 183.25 73.8605 182.159 71.9975C181.068 70.1345 179.616 68.5078 177.889 67.2127C176.273 65.8614 174.942 64.2015 173.975 62.3302C174.01 60.1481 174.498 57.9971 175.409 56.0139C176.374 54.1249 176.956 52.0639 177.122 49.9493C177.288 47.8347 177.035 45.708 176.378 43.6914C175.197 41.9054 173.675 40.3699 171.899 39.173C170.124 37.9761 168.13 37.1413 166.031 36.7164C163.944 36.1885 161.982 35.2535 160.258 33.9652C159.4 31.9933 158.926 29.8758 158.863 27.7264C158.921 25.5909 158.557 23.4648 157.793 21.4699C157.028 19.4751 155.877 17.6508 154.406 16.1014C150.703 13.921 146.287 13.2942 142.123 14.3577C140.014 14.793 137.838 14.793 135.729 14.3577C134.106 12.998 132.774 11.324 131.815 9.43642C130.934 7.45898 129.668 5.6766 128.091 4.19306C126.515 2.70953 124.659 1.55448 122.631 0.795174C120.532 0.614682 118.417 0.850373 116.409 1.48873C114.401 2.12709 112.539 3.15556 110.929 4.51517C109.169 5.85665 107.15 6.81973 105 7.34392C102.85 6.81973 100.831 5.85665 99.0713 4.51517C97.4673 3.15855 95.6114 2.13167 93.61 1.49333C91.6085 0.854999 89.5008 0.61775 87.4075 0.795174C85.3717 1.5478 83.5071 2.70002 81.9232 4.18404C80.3394 5.66805 79.0684 7.45388 78.185 9.43642C77.2242 11.3123 75.9082 12.9836 74.31 14.3577C72.1879 14.7924 69.9997 14.7924 67.8775 14.3577C63.726 13.2937 59.322 13.9209 55.6325 16.1014C54.1452 17.6489 52.9815 19.4776 52.2097 21.4803C51.4378 23.4831 51.0733 25.6198 51.1375 27.7652C51.098 29.9093 50.6096 32.0214 49.7038 33.9652C48.0144 35.2557 46.0743 36.1795 44.0075 36.6777C39.7592 37.5367 36.0247 40.0449 33.6225 43.6527C32.9641 45.6757 32.7107 47.8087 32.877 49.9297C33.0432 52.0507 33.6257 54.1181 34.5913 56.0139C35.5021 57.9971 35.9904 60.1481 36.025 62.3302C35.0578 64.2015 33.7273 65.8614 32.1113 67.2127C30.3838 68.5078 28.932 70.1345 27.8408 71.9975C26.7496 73.8605 26.0409 75.9225 25.7563 78.0627C26.0452 80.207 26.7555 82.2731 27.8461 84.1418C28.9368 86.0106 30.3863 87.6452 32.1113 88.9514C33.7332 90.2815 35.0652 91.9301 36.025 93.7952C35.9904 95.9772 35.5021 98.1282 34.5913 100.111C33.6264 102 33.0442 104.061 32.8779 106.176C32.7117 108.291 32.9647 110.417 33.6225 112.434C34.7941 114.228 36.3131 115.77 38.0901 116.968C39.867 118.166 41.8659 118.996 43.9688 119.409C44.86 119.758 45.79 120.068 46.6425 120.416C36.2188 136.536 25.8079 152.644 15.41 168.738L0.840023 191.329C0.419752 191.962 0.198816 192.706 0.205724 193.466C0.212631 194.226 0.447065 194.966 0.878774 195.591C1.29977 196.216 1.89521 196.704 2.59106 196.993C3.2869 197.283 4.05245 197.361 4.79252 197.219L31.2588 192.298L37.6913 218.493C37.8781 219.225 38.2747 219.886 38.8323 220.395C39.3899 220.905 40.0843 221.24 40.83 221.36C41.0339 221.405 41.2414 221.431 41.45 221.438C42.0994 221.442 42.7392 221.281 43.3087 220.969C43.8783 220.657 44.3589 220.205 44.705 219.655L86.4775 154.981C86.7875 155.059 87.0588 155.253 87.3688 155.33C88.0036 155.482 88.6537 155.56 89.3063 155.563C92.8634 155.171 96.2429 153.803 99.0713 151.61C100.831 150.269 102.85 149.306 105 148.781C107.15 149.306 109.169 150.269 110.929 151.61C112.54 152.981 114.408 154.015 116.424 154.654C118.44 155.293 120.564 155.523 122.67 155.33C122.98 155.253 123.251 155.059 123.523 154.981L165.295 219.655C165.641 220.205 166.122 220.657 166.691 220.969C167.261 221.281 167.901 221.442 168.55 221.438C168.759 221.431 168.966 221.405 169.17 221.36C169.916 221.24 170.61 220.905 171.168 220.395C171.725 219.886 172.122 219.225 172.309 218.493L178.741 192.298L205.208 197.219C205.947 197.357 206.712 197.277 207.407 196.988C208.102 196.699 208.697 196.214 209.121 195.591C209.553 194.966 209.787 194.226 209.794 193.466C209.801 192.706 209.58 191.962 209.16 191.329ZM43.0775 207.875L37.9238 186.911C37.6922 185.95 37.1017 185.113 36.2732 184.573C35.4447 184.032 34.4409 183.829 33.4675 184.005L12.2325 187.958L21.92 172.961C31.6075 157.926 41.3209 142.891 51.06 127.856C51.1021 128.035 51.1281 128.216 51.1375 128.399C51.0792 130.534 51.4428 132.661 52.2074 134.655C52.9721 136.65 54.1229 138.475 55.5938 140.024C59.2982 142.202 63.7132 142.829 67.8775 141.768C69.9865 141.332 72.1623 141.332 74.2713 141.768C75.9036 143.118 77.2365 144.794 78.185 146.689C78.9213 147.813 79.6575 148.936 80.4325 150.021L43.0775 207.875ZM122.05 146.999C121.737 147.354 121.336 147.622 120.888 147.774C119.803 148.006 116.935 146.263 115.075 145.061C112.162 142.799 108.67 141.402 105 141.031C101.33 141.402 97.8385 142.799 94.925 145.061C93.065 146.263 90.1975 148.045 89.1513 147.813C88.6762 147.631 88.2512 147.339 87.9113 146.96C86.7112 145.617 85.6589 144.149 84.7725 142.581C83.1691 139.383 80.7156 136.688 77.6813 134.793C75.9198 133.991 73.997 133.606 72.0625 133.669C70.3773 133.702 68.6954 133.831 67.025 134.056C64.6225 134.328 61.3675 134.715 60.4375 133.979C59.5075 133.243 59.12 129.949 58.8488 127.546C58.8016 123.918 57.7413 120.375 55.7875 117.316C55.4792 116.929 55.1282 116.579 54.7413 116.27C54.5934 116.145 54.4381 116.028 54.2763 115.921L54.2375 115.883H54.1988C51.8821 114.188 49.2848 112.916 46.5263 112.124C44.24 111.31 41.14 110.225 40.5975 109.063C40.055 107.978 41.14 104.916 41.915 102.669C43.4673 99.3735 44.0454 95.7032 43.5813 92.0902C42.4433 88.6964 40.3595 85.6983 37.575 83.4489C35.87 81.7439 33.5063 79.3802 33.5063 78.0627C33.5063 76.7452 35.87 74.3814 37.575 72.6764C40.3595 70.4271 42.4433 67.429 43.5813 64.0352C44.0454 60.4222 43.4673 56.7518 41.915 53.4564C41.14 51.2089 40.055 48.1477 40.5975 47.0239C41.14 45.9002 44.2788 44.8152 46.565 44.0014C50.0581 43.1801 53.2442 41.3787 55.7488 38.8089C57.7314 35.7763 58.8069 32.2406 58.8488 28.6177C59.12 26.2152 59.4688 22.9602 60.4375 22.1852C61.4063 21.4102 64.6225 21.7977 67.025 22.0689C70.576 22.8254 74.2681 22.5703 77.6813 21.3327C80.7247 19.4481 83.1809 16.7503 84.7725 13.5439C86.0513 11.4514 87.8338 8.62267 89.1125 8.35142C90.1975 8.08017 93.065 9.90142 94.925 11.0639C97.8385 13.3263 101.33 14.7229 105 15.0939C108.67 14.7229 112.162 13.3263 115.075 11.0639C116.935 9.90142 119.764 8.11892 120.888 8.35142C122.166 8.62267 123.949 11.4514 125.228 13.5439C126.819 16.7503 129.275 19.4481 132.319 21.3327C135.732 22.5703 139.424 22.8254 142.975 22.0689C145.378 21.7977 148.633 21.4102 149.563 22.1464C150.493 22.8827 150.88 26.1764 151.151 28.5789C151.198 32.2076 152.259 35.7508 154.213 38.8089C156.754 41.3785 159.961 43.1899 163.474 44.0402C165.76 44.8152 168.86 45.9002 169.403 47.0627C169.945 48.1477 168.86 51.2089 168.085 53.4564C166.533 56.7518 165.955 60.4222 166.419 64.0352C167.557 67.429 169.641 70.4271 172.425 72.6764C174.13 74.3814 176.494 76.7452 176.494 78.0627C176.494 79.3802 174.13 81.7439 172.425 83.4489C169.641 85.6983 167.557 88.6964 166.419 92.0902C165.955 95.7032 166.533 99.3735 168.085 102.669C168.86 104.916 169.945 107.978 169.403 109.101C168.86 110.225 165.721 111.349 163.474 112.124C160.572 112.917 157.849 114.258 155.453 116.076C155.023 116.46 154.622 116.875 154.251 117.316C152.269 120.349 151.193 123.885 151.151 127.508C150.88 129.91 150.531 133.165 149.563 133.94C148.594 134.715 145.378 134.328 142.975 134.056C139.425 133.281 135.728 133.536 132.319 134.793C129.285 136.688 126.831 139.383 125.228 142.581C124.332 144.165 123.266 145.646 122.05 146.999ZM176.533 184.005C175.559 183.829 174.555 184.032 173.727 184.573C172.898 185.113 172.308 185.95 172.076 186.911L166.923 207.875L129.568 150.021C130.343 148.936 131.079 147.813 131.815 146.689C132.765 144.806 134.082 143.133 135.69 141.768C137.812 141.333 140 141.333 142.123 141.768C146.274 142.832 150.678 142.204 154.368 140.024C155.851 138.482 157.013 136.66 157.785 134.664C158.557 132.668 158.923 130.538 158.863 128.399C158.869 128.216 158.895 128.034 158.94 127.856C168.666 142.891 178.38 157.926 188.08 172.961L197.768 187.958L176.533 184.005Z" fill="#5858FF"/>
</svg>
