<svg width="109" height="109" viewBox="0 0 109 109" fill="none" xmlns="http://www.w3.org/2000/svg">
<path d="M105.812 55.0893L55.8074 5.08684C53.886 3.16571 51.3495 2.03718 48.66 1.90966L11.4384 0.0134387C8.36663 -0.139204 5.367 1.01402 3.19041 3.19041C1.01402 5.36934 -0.139204 8.3662 0.0134387 11.4384L1.90966 48.6351C2.03739 51.3492 3.19041 53.8861 5.08684 55.7823L11.1308 61.8288L9.28695 61.366C7.26322 69.6664 6.39249 77.0688 6.39249 83.4478C6.39249 90.9801 7.59596 97.0241 9.69741 101.457C10.7478 103.659 12.0539 105.452 13.6423 106.786C15.206 108.116 17.152 108.937 19.2008 108.937C21.1471 108.937 23.0433 108.194 24.7345 106.963C26.4006 105.735 27.9366 103.994 29.3197 101.765C31.6241 98.0498 33.0598 93.2093 33.9831 87.6482C34.1355 86.8051 34.2631 85.9318 34.3659 85.0613L29.7304 80.4258C29.5503 82.6548 29.2676 84.8063 28.9351 86.83C28.0895 91.9786 26.7059 96.2813 24.9898 99.0482C23.8391 100.867 22.711 102.123 21.7125 102.84C20.6868 103.584 19.894 103.788 19.2008 103.814C18.483 103.788 17.7924 103.559 16.9221 102.866C15.6413 101.815 14.2054 99.6135 13.182 96.3088C12.1563 93.0043 11.5159 88.6741 11.5159 83.448C11.5159 78.0421 12.1814 71.6654 13.8224 64.5182L29.7304 80.4258C30.038 76.9413 30.1907 73.2538 30.1907 69.4863C30.1907 57.346 28.6796 44.4075 26.6307 35.5442C24.3243 35.5442 21.9929 34.6739 20.2266 32.9076C16.742 29.3979 16.742 23.7367 20.2266 20.2268C23.7365 16.717 29.4226 16.717 32.905 20.2268C36.4148 23.7365 36.4148 29.3979 32.905 32.9076C32.4695 33.3427 32.0092 33.7257 31.524 34.0334C32.2395 36.9278 32.8299 40.2072 33.3676 43.742C34.546 51.6071 35.3139 60.7005 35.3139 69.4863C35.3139 74.9173 35.0312 80.2208 34.3659 85.0613L55.117 105.812C59.3671 110.063 66.2593 110.063 70.5117 105.812L105.812 70.4868C110.063 66.2341 110.063 59.3422 105.812 55.0893Z" fill="#5858FF"/>
<path d="M31.2913 33.0096C30.4983 29.8576 29.6527 27.1935 28.6796 25.0918L24.0417 27.2707C24.7845 28.8593 25.5803 31.291 26.3231 34.238C26.4257 34.648 26.5283 35.0834 26.6307 35.5437C28.347 35.5437 30.0631 35.0334 31.524 34.0328C31.4714 33.6749 31.3688 33.3422 31.2913 33.0096Z" fill="#5858FF"/>
</svg>
