<svg width="149" height="87" viewBox="0 0 149 87" fill="none" xmlns="http://www.w3.org/2000/svg">
<path d="M148.998 44.8122C148.998 44.7873 148.996 44.7624 148.996 44.7376C148.955 43.0695 147.456 41.7405 145.566 41.7405H144.665L130.756 17.7177C130.169 16.7033 128.998 16.0717 127.706 16.0714L103.959 16.067L104.865 9.6519C105.124 7.08826 104.236 4.66765 102.366 2.83549C100.5 1.00712 97.8936 0 95.0276 0H21.3244C19.4712 0 17.897 1.28087 17.7203 2.93221L16.9815 8.21761H58.974C61.7007 8.21761 63.8533 10.1922 63.782 12.6279C63.7104 15.0636 61.4422 17.0382 58.7155 17.0382H44.7088C44.7112 17.0445 44.7137 17.0508 44.7162 17.0568H3.58411C1.65584 17.0568 0.0516463 18.4529 0.00121778 20.1755C-0.0492108 21.898 1.47281 23.2942 3.40109 23.2942H57.8554C60.3832 23.6419 62.2716 25.5947 62.2022 27.959C62.126 30.5554 59.7199 32.6606 56.8183 32.6824H19.2762C17.3285 32.6824 15.7085 34.0927 15.6573 35.8326C15.6062 37.5724 17.1437 38.9828 19.0914 38.9828H56.1913C58.7561 39.3019 60.6823 41.2704 60.6124 43.6577C60.5359 46.2673 58.1055 48.383 55.1841 48.383H12.6221V48.3864H9.04591C7.09824 48.3864 5.47818 49.7968 5.42705 51.5366C5.37591 53.2765 6.9131 54.6868 8.86112 54.6868H11.9475L10.7404 65.9702C10.4815 68.5335 11.3688 70.9541 13.2392 72.7863C15.1054 74.615 17.7119 75.6218 20.5778 75.6218H23.2403C24.5091 82.103 30.7862 87 38.4644 87C46.1426 87 52.7068 82.103 54.3547 75.6221H87.5808C90.2672 75.6221 92.8105 74.7045 94.8051 73.2021C96.629 74.7659 99.0467 75.6221 101.687 75.6221H102.233C103.502 82.103 109.779 87 117.457 87C125.136 87 131.7 82.103 133.348 75.6221H135.541C141.254 75.6221 146.321 71.473 146.836 66.3731L148.985 45.1074C148.988 45.0787 148.986 45.0504 148.988 45.0214C148.992 44.9776 148.998 44.9348 149 44.8907C149.001 44.8642 148.998 44.8387 148.998 44.8122ZM38.6492 80.6996C33.788 80.6996 29.9364 77.167 30.0637 72.8244C30.191 68.4816 34.2496 64.9486 39.1108 64.9486C43.9721 64.9486 47.8233 68.4816 47.696 72.8244C47.5687 77.167 43.5105 80.6996 38.6492 80.6996ZM117.642 80.6996C112.781 80.6996 108.93 77.167 109.057 72.8244C109.184 68.4816 113.243 64.9486 118.104 64.9486C122.965 64.9486 126.817 68.4816 126.689 72.8244C126.562 77.167 122.503 80.6996 117.642 80.6996ZM139.81 65.9702C139.626 67.7869 137.756 69.3217 135.726 69.3217H133.354C131.783 63.1936 125.686 58.6482 118.288 58.6482C110.891 58.6482 104.527 63.1936 102.598 69.3217H101.871C100.975 69.3217 100.175 69.0215 99.6184 68.4759C99.058 67.9271 98.7942 67.1802 98.8757 66.3728L103.322 22.3674L113.535 22.3693L111.916 38.3886C111.657 40.952 112.544 43.3726 114.414 45.2047C116.28 47.0337 118.887 48.0412 121.753 48.0412H141.621L139.81 65.9702Z" fill="#5858FF"/>
</svg>
