<svg width="120" height="121" viewBox="0 0 120 121" fill="none" xmlns="http://www.w3.org/2000/svg">
<path d="M81.4277 36.7816C77.9189 15.1724 69.6431 0 60.0121 0C50.3811 0 42.1053 15.1724 38.5965 36.7816H81.4277ZM36.7816 60.0121C36.7816 65.3842 37.072 70.5384 37.5802 75.4991H82.4198C82.928 70.5384 83.2184 65.3842 83.2184 60.0121C83.2184 54.64 82.928 49.4858 82.4198 44.5251H37.5802C37.072 49.4858 36.7816 54.64 36.7816 60.0121ZM115.354 36.7816C108.433 20.3509 94.4223 7.6467 77.1204 2.51664C83.0248 10.6957 87.0901 23.0127 89.2196 36.7816H115.354ZM42.8796 2.51664C25.6019 7.6467 11.5668 20.3509 4.6703 36.7816H30.8046C32.9099 23.0127 36.9752 10.6957 42.8796 2.51664ZM117.943 44.5251H90.1875C90.6957 49.6068 90.9861 54.8094 90.9861 60.0121C90.9861 65.2148 90.6957 70.4174 90.1875 75.4991H117.919C119.25 70.5384 120 65.3842 120 60.0121C120 54.64 119.25 49.4858 117.943 44.5251ZM29.0381 60.0121C29.0381 54.8094 29.3285 49.6068 29.8367 44.5251H2.08106C0.77435 49.4858 0 54.64 0 60.0121C0 65.3842 0.77435 70.5384 2.08106 75.4991H29.8125C29.3285 70.4174 29.0381 65.2148 29.0381 60.0121ZM38.5965 83.2426C42.1053 104.852 50.3811 120.024 60.0121 120.024C69.6431 120.024 77.9189 104.852 81.4277 83.2426H38.5965ZM77.1446 117.508C94.4223 112.377 108.457 99.6733 115.378 83.2426H89.2438C87.1143 97.0115 83.049 109.328 77.1446 117.508ZM4.6703 83.2426C11.591 99.6733 25.6019 112.377 42.9038 117.508C36.9994 109.328 32.9341 97.0115 30.8046 83.2426H4.6703Z" fill="#5858FF"/>
</svg>
