<svg width="112" height="112" viewBox="0 0 112 112" fill="none" xmlns="http://www.w3.org/2000/svg">
<path d="M110.601 23.8C110.135 22.4 108.504 22.1667 107.338 23.1L88.4579 42C87.0593 43.4 84.7284 43.4 83.3299 42L70.0437 28.7C68.6452 27.3 68.6452 24.9667 70.0437 23.5667L89.1571 4.66667C90.0895 3.73333 89.6233 2.1 88.4579 1.4C85.1946 0.466666 81.6982 0 78.435 0C58.6223 0 42.7721 17.0333 45.103 37.3333C45.5692 40.6 46.2685 43.4 47.4339 46.2L3.84599 89.6C-1.282 94.7333 -1.282 103.133 3.84599 108.033C6.40999 110.6 9.90635 112 13.1696 112C16.4329 112 19.9292 110.6 22.4932 108.033L65.8481 64.6333C68.6452 65.8 71.6753 66.5 74.7055 66.9667C94.9844 69.3 112 53.4333 112 33.6C112 30.1 111.534 26.8333 110.601 23.8Z" fill="#5858FF"/>
</svg>
