<svg width="124" height="124" viewBox="0 0 124 124" fill="none" xmlns="http://www.w3.org/2000/svg">
<path d="M89.8847 36.4658C90.4136 37.7007 90.8539 38.9686 91.2056 40.2616C91.5497 41.5067 91.813 42.7719 91.9927 44.0574C92.1925 45.4568 92.2913 46.8765 92.2913 48.3088C92.2913 65.0134 78.7019 78.6002 61.9999 78.6002C45.298 78.6002 31.7086 65.0132 31.7086 48.3088C31.7086 46.8789 31.8098 45.4592 32.0072 44.0574C32.1869 42.7743 32.4502 41.5065 32.7943 40.2616C33.1486 38.9686 33.5889 37.7007 34.1152 36.4658H10.9221V88.9634H14.7179H18.5137H105.486H109.281H113.078V36.4658H89.8847Z" fill="#5858FF"/>
<path d="M113.078 96.5557H109.282H14.718H10.9222H0V120.035H124V96.5557H113.078ZM64.6243 110.578H59.3759V105.327H64.6243V110.578Z" fill="#5858FF"/>
<path d="M84.7478 47.7803H84.6921H80.9517H77.1533H46.8469H43.0484H39.3057H39.2526C39.2475 47.9726 39.2451 48.1649 39.2451 48.3572C39.2451 60.9039 49.4536 71.11 62.0003 71.11C74.5471 71.11 84.7555 60.9039 84.7555 48.3572C84.7553 48.1649 84.7529 47.9726 84.7478 47.7803Z" fill="#5858FF"/>
<path d="M83.2342 40.1888C83.1366 39.9345 83.0307 39.6839 82.9239 39.4339C82.7583 39.0455 82.5856 38.6606 82.3989 38.2831C82.0918 37.6621 81.7563 37.0559 81.3945 36.4664C81.2274 36.1906 81.0528 35.9198 80.8707 35.6514C78.9804 32.8426 76.4624 30.451 73.4609 28.7024V11.5584H77.2139V3.96655H73.4609V3.96582H50.5386V3.96655H46.7857V11.5584H50.5386V28.7026C47.3955 30.5374 44.7789 33.0729 42.8608 36.0591C42.7748 36.1932 42.6886 36.3298 42.6053 36.4664C42.2435 37.0561 41.908 37.6621 41.6009 38.2831C41.4142 38.6609 41.2413 39.0457 41.0759 39.4339C40.9693 39.6839 40.8632 39.9345 40.7656 40.1888C40.7555 40.2116 40.7453 40.237 40.7354 40.2622H40.7707H44.8525H49.185H74.815H79.1475H83.232H83.2649C83.2545 40.237 83.2443 40.2116 83.2342 40.1888Z" fill="#5858FF"/>
</svg>
