<svg width="106" height="81" viewBox="0 0 106 81" fill="none" xmlns="http://www.w3.org/2000/svg">
<path d="M104.533 43.963L69.1979 79.2981C66.043 82.453 60.5744 80.2446 60.5744 75.7225V55.531H31.9698C29.1725 55.531 26.922 53.2805 26.922 50.4832V30.2917C26.922 27.4943 29.1725 25.2438 31.9698 25.2438H60.5744V5.05234C60.5744 0.551326 66.0219 -1.67815 69.1979 1.47677L104.533 36.8119C106.489 38.7889 106.489 41.9859 104.533 43.963ZM40.383 78.2465V69.8333C40.383 68.4452 39.2472 67.3094 37.859 67.3094H20.1915C16.4687 67.3094 13.461 64.3017 13.461 60.5789V20.196C13.461 16.4731 16.4687 13.4655 20.1915 13.4655H37.859C39.2472 13.4655 40.383 12.3297 40.383 10.9415V2.52841C40.383 1.14024 39.2472 0.00447338 37.859 0.00447338H20.1915C9.0441 0.00447338 0 9.04857 0 20.196V60.5789C0 71.7263 9.0441 80.7704 20.1915 80.7704H37.859C39.2472 80.7704 40.383 79.6346 40.383 78.2465Z" fill="#5858FF"/>
</svg>
